<svg width="21" height="25" viewBox="0 0 21 25" fill="none" xmlns="http://www.w3.org/2000/svg">
<path d="M15.7083 0H5.29166C3.91083 0.00165402 2.58704 0.550919 1.61064 1.52731C0.634247 2.50371 0.0849823 3.8275 0.0833282 5.20833V20.8333C0.0833282 21.9384 0.522315 22.9982 1.30372 23.7796C2.08512 24.561 3.14493 25 4.25 25H15.7083C17.0892 24.9983 18.413 24.4491 19.3894 23.4727C20.3658 22.4963 20.915 21.1725 20.9167 19.7917V5.20833C20.915 3.8275 20.3658 2.50371 19.3894 1.52731C18.413 0.550919 17.0892 0.00165402 15.7083 0ZM18.8333 5.20833V16.6667H6.33333V2.08333H15.7083C16.5371 2.08333 17.332 2.41257 17.918 2.99862C18.5041 3.58467 18.8333 4.37953 18.8333 5.20833ZM4.25 2.2625V16.6667C3.51836 16.666 2.79958 16.859 2.16666 17.226V5.20833C2.16675 4.56217 2.36714 3.93193 2.74024 3.40438C3.11334 2.87682 3.64079 2.47788 4.25 2.2625ZM15.7083 22.9167H4.25C3.69746 22.9167 3.16756 22.6972 2.77686 22.3065C2.38616 21.9158 2.16666 21.3859 2.16666 20.8333C2.16666 20.2808 2.38616 19.7509 2.77686 19.3602C3.16756 18.9695 3.69746 18.75 4.25 18.75H18.8333V19.7917C18.8333 20.6205 18.5041 21.4153 17.918 22.0014C17.332 22.5874 16.5371 22.9167 15.7083 22.9167Z" fill="#ACACAC"/>
</svg>
