<svg width="25" height="25" viewBox="0 0 25 25" fill="none" xmlns="http://www.w3.org/2000/svg">
<path d="M24.0843 9.44688L16.1833 1.54479C15.2054 0.569779 13.8809 0.0222626 12.5 0.0222626C11.1191 0.0222626 9.79453 0.569779 8.81666 1.54479L0.915621 9.44688C0.624398 9.73624 0.393507 10.0805 0.236333 10.4598C0.0791589 10.839 -0.00117192 11.2457 -2.67601e-06 11.6563V21.8823C-2.67601e-06 22.7111 0.329237 23.506 0.915288 24.092C1.50134 24.6781 2.29619 25.0073 3.12499 25.0073H21.875C22.7038 25.0073 23.4986 24.6781 24.0847 24.092C24.6707 23.506 25 22.7111 25 21.8823V11.6563C25.0011 11.2457 24.9208 10.839 24.7636 10.4598C24.6065 10.0805 24.3756 9.73624 24.0843 9.44688V9.44688ZM15.625 22.924H9.37499V18.826C9.37499 17.9972 9.70423 17.2024 10.2903 16.6163C10.8763 16.0303 11.6712 15.701 12.5 15.701C13.3288 15.701 14.1236 16.0303 14.7097 16.6163C15.2957 17.2024 15.625 17.9972 15.625 18.826V22.924ZM22.9166 21.8823C22.9166 22.1586 22.8069 22.4235 22.6115 22.6189C22.4162 22.8142 22.1512 22.924 21.875 22.924H17.7083V18.826C17.7083 17.4447 17.1596 16.12 16.1828 15.1432C15.2061 14.1664 13.8813 13.6177 12.5 13.6177C11.1187 13.6177 9.79389 14.1664 8.81714 15.1432C7.84039 16.12 7.29166 17.4447 7.29166 18.826V22.924H3.12499C2.84873 22.924 2.58378 22.8142 2.38843 22.6189C2.19308 22.4235 2.08333 22.1586 2.08333 21.8823V11.6563C2.08429 11.3802 2.19394 11.1156 2.38854 10.9198L10.2896 3.02083C10.8768 2.43638 11.6715 2.10827 12.5 2.10827C13.3285 2.10827 14.1232 2.43638 14.7104 3.02083L22.6114 10.9229C22.8053 11.118 22.9149 11.3813 22.9166 11.6563V21.8823Z" fill="#0052FF"/>
</svg>
