<svg width="19" height="25" viewBox="0 0 19 25" fill="none" xmlns="http://www.w3.org/2000/svg">
<path d="M18.875 25H16.7917V19.7469C16.7908 18.9302 16.466 18.1472 15.8886 17.5697C15.3111 16.9923 14.5281 16.6675 13.7115 16.6667H5.28854C4.47187 16.6675 3.68889 16.9923 3.11142 17.5697C2.53395 18.1472 2.20916 18.9302 2.20833 19.7469V25H0.125V19.7469C0.126654 18.3779 0.671199 17.0655 1.63919 16.0975C2.60719 15.1295 3.91959 14.585 5.28854 14.5833H13.7115C15.0804 14.585 16.3928 15.1295 17.3608 16.0975C18.3288 17.0655 18.8733 18.3779 18.875 19.7469V25Z" fill="#ACACAC"/>
<path d="M9.5 12.4999C8.26387 12.4999 7.05549 12.1334 6.02769 11.4466C4.99988 10.7599 4.1988 9.78374 3.72576 8.6417C3.25271 7.49967 3.12894 6.243 3.37009 5.03062C3.61125 3.81824 4.20651 2.70459 5.08058 1.83052C5.95466 0.956438 7.06831 0.361184 8.28069 0.120026C9.49307 -0.121131 10.7497 0.00263937 11.8918 0.475687C13.0338 0.948735 14.0099 1.74981 14.6967 2.77762C15.3834 3.80543 15.75 5.0138 15.75 6.24993C15.7483 7.90703 15.0893 9.49578 13.9176 10.6675C12.7458 11.8393 11.1571 12.4983 9.5 12.4999V12.4999ZM9.5 2.08327C8.67591 2.08327 7.87033 2.32764 7.18513 2.78548C6.49992 3.24332 5.96587 3.89406 5.6505 4.65542C5.33514 5.41678 5.25262 6.25455 5.4134 7.06281C5.57417 7.87106 5.971 8.61349 6.55372 9.19621C7.13644 9.77893 7.87887 10.1758 8.68712 10.3365C9.49538 10.4973 10.3332 10.4148 11.0945 10.0994C11.8559 9.78407 12.5066 9.25001 12.9645 8.56481C13.4223 7.8796 13.6667 7.07402 13.6667 6.24993C13.6667 5.14486 13.2277 4.08506 12.4463 3.30365C11.6649 2.52225 10.6051 2.08327 9.5 2.08327Z" fill="#ACACAC"/>
</svg>
